<?xml version="1.0" encoding="UTF-8"?>
<svg width="240px" height="161px" viewBox="0 0 240 161" version="1.1" xmlns="http://www.w3.org/2000/svg" xmlns:xlink="http://www.w3.org/1999/xlink">
    <!-- Generator: Sketch 64 (93537) - https://sketch.com -->
    <title>Group 2</title>
    <desc>Created with Sketch.</desc>
    <defs>
        <polygon id="path-1" points="0 0.12396802 239.885499 0.12396802 239.885499 160.801909 0 160.801909"></polygon>
    </defs>
    <g id="Custom-Lenses" stroke="none" stroke-width="1" fill="none" fill-rule="evenodd">
        <g id="Custom-Lenses-Sales-Page" transform="translate(-820.000000, -1050.000000)">
            <g id="Group-2" transform="translate(820.000000, 1050.000000)">
                <g id="Group-14">
                    <path d="M112.677737,49.4569424 C116.180467,49.4569424 119.030094,52.2996915 119.030094,55.7939658 C119.030094,59.2882401 116.180467,62.1309892 112.677737,62.1309892 C109.175007,62.1309892 106.32538,59.2882401 106.32538,55.7939658 C106.32538,52.2996915 109.175007,49.4569424 112.677737,49.4569424 M112.677737,62.9231171 C116.618382,62.9231171 119.824139,59.7250986 119.824139,55.7939658 C119.824139,51.862833 116.618382,48.6648145 112.677737,48.6648145 C108.737092,48.6648145 105.531335,51.862833 105.531335,55.7939658 C105.531335,59.7250986 108.737092,62.9231171 112.677737,62.9231171" id="Fill-1" fill="#14145A"></path>
                    <path d="M112.677737,52.0313582 C114.757538,52.0313582 116.449449,53.7191847 116.449449,55.7939658 C116.449449,57.8687469 114.757538,59.5565734 112.677737,59.5565734 C110.597935,59.5565734 108.906025,57.8687469 108.906025,55.7939658 C108.906025,53.7191847 110.597935,52.0313582 112.677737,52.0313582 M112.677737,60.3487014 C115.195454,60.3487014 117.243494,58.3054074 117.243494,55.7939658 C117.243494,53.2825242 115.195454,51.2392303 112.677737,51.2392303 C110.16002,51.2392303 108.11198,53.2825242 108.11198,55.7939658 C108.11198,58.3054074 110.16002,60.3487014 112.677737,60.3487014" id="Fill-3" fill="#14145A"></path>
                    <path d="M68.0865707,83.602369 C70.0502432,85.9444932 73.3697469,89.5375855 78.0337667,93.355048 C83.273866,97.6436285 89.1093002,101.336727 95.3782829,104.331763 C103.212526,108.074369 111.7493,110.730968 120.751385,112.227694 L120.882005,111.446458 C100.68131,108.087835 86.7202184,99.4336396 78.5653797,92.7655068 C69.7256774,85.5369434 65.6111365,79.0177306 65.5706402,78.9527761 L64.8962978,79.3708216 C64.9385806,79.4383506 65.9529727,81.05746 68.0865707,83.602369" id="Fill-5" fill="#14145A"></path>
                    <g id="Group-9" transform="translate(0.000000, 0.074064)">
                        <mask id="mask-2" fill="white">
                            <use xlink:href="#path-1"></use>
                        </mask>
                        <g id="Clip-8"></g>
                        <path d="M223.147236,69.9327561 C222.771454,69.8079959 221.806888,69.4238139 220.189221,68.3686995 C218.225945,67.0880267 214.870511,64.5272752 210.033191,59.6014277 C201.694333,51.1092223 199.787236,45.4819455 199.472199,44.3618766 L207.314382,36.9536983 C207.864457,38.2034781 209.450759,41.5026909 212.503464,45.6609664 C215.972844,50.3868016 222.057012,57.1117696 231.425747,62.5227954 L223.147236,69.9327561 Z M211.224854,72.3198336 C210.522918,72.1330894 207.622868,71.1243145 202.477459,66.3224351 C197.28401,61.4758004 195.813241,57.7500267 195.511504,56.8347229 L201.908129,51.0005027 C203.526194,53.4644166 205.924208,56.5489627 209.466045,60.1557192 C212.565201,63.3119529 215.082323,65.5334756 217.073588,67.096146 L211.224854,72.3198336 Z M192.849667,87.6809763 C191.215524,86.4395138 182.438948,79.6125593 179.472199,74.0266712 L195.700685,59.2124929 C196.675772,61.0171583 198.520536,63.7145519 201.935127,66.9008865 C205.33463,70.0733588 207.78406,71.6378114 209.322521,72.4075617 L192.849667,87.6809763 Z M197.891256,91.1661411 C198.214233,91.7297401 198.337707,92.5610784 197.929965,92.9908077 C197.593092,93.3458032 196.347037,93.9411632 192.061181,91.803408 C184.804804,88.1839775 177.558352,77.7641288 176.154481,75.1386208 C175.006094,72.9903699 174.558055,70.8286528 175.064854,69.8818619 C175.22803,69.5776847 175.475375,69.4188631 175.843811,69.3822272 C176.827037,69.2840033 179.435474,70.4502137 180.656913,71.8716872 L178.491355,73.8484424 L178.62535,74.1159836 C181.807484,80.4646909 192.199146,88.1897204 192.639841,88.515483 L192.904854,88.7113367 L194.490759,87.2409492 C195.227831,87.982975 197.270908,90.0829062 197.891256,91.1661411 L197.891256,91.1661411 Z M184.104854,96.6431116 C176.604506,92.6884129 170.767682,83.0818815 169.756069,81.3453391 L175.702273,75.9529283 C177.461082,78.9614301 183.647285,87.6059221 190.178501,91.654686 C189.287385,92.4638446 186.94138,94.5421903 184.104854,96.6431116 L184.104854,96.6431116 Z M172.319643,106.560355 C171.21473,106.2037 166.296814,104.519041 163.569667,101.968588 C160.861578,99.4357585 159.006888,94.5948668 158.598352,93.4617278 L169.917856,83.1397069 C170.656913,84.3112641 171.774134,85.9836442 173.182968,87.7962309 C176.760734,92.3996823 179.974233,95.0457856 182.379593,96.5585519 L172.319643,106.560355 Z M163.405697,106.624715 L163.175821,106.67858 L163.113489,106.905921 C162.52133,109.072787 159.123811,112.704891 153.994481,115.168805 C148.825449,117.651334 143.963712,121.092338 143.630015,121.330372 C143.534928,121.381861 143.271702,121.489788 143.083712,121.42523 C143.058104,121.416516 142.999146,121.396317 142.934035,121.3175 C143.8053,120.246345 145.079543,118.029575 146.539792,115.489815 C148.228923,112.551615 150.143365,109.221311 151.698898,107.255645 C153.4454,105.048777 155.599841,103.384912 158.102273,102.309995 C158.200734,102.267616 158.272397,102.236525 158.314283,102.215731 C158.486591,102.129786 158.830015,101.955121 159.60798,97.7459517 C160.480635,99.4207081 161.63736,101.246959 163.026541,102.546247 C164.576913,103.996435 166.740685,105.158091 168.591007,105.980715 C167.197062,106.032204 165.263762,106.188649 163.405697,106.624715 L163.405697,106.624715 Z M139.168675,124.937129 L142.381181,121.88506 C142.43597,121.942093 142.491752,121.991799 142.547931,122.031604 L139.168675,124.937129 Z M162.277955,154.541128 C162.336318,154.685889 162.328179,154.850057 162.254928,155.00373 C162.235474,155.044525 162.211057,155.082745 162.184258,155.118985 L162.172943,155.11146 L162.121727,155.188692 C162.039742,155.273252 161.940288,155.340385 161.82932,155.374644 C159.884903,155.977057 153.211752,155.643374 143.581578,152.184943 C138.578898,150.388397 127.377509,142.665942 115.518055,134.49039 C104.013141,126.558813 90.9731414,117.568953 81.3018759,112.403883 C61.1782035,101.656687 24.5993449,85.2570648 11.3878313,79.9088151 C7.28043672,78.2461386 2.34683871,75.6513256 2.16857568,72.7329283 C2.0480794,70.7561731 4.17234739,69.2669726 5.46108189,68.5504929 C11.0555236,66.0537057 17.5525955,65.0346331 24.7724467,65.5209996 C30.5715533,65.9115187 36.8468883,67.2686319 43.4239603,69.554317 C53.3254988,72.9955187 60.9590471,77.5431251 62.6714045,78.5998237 L60.6352754,81.3794006 L60.6791464,81.5586196 C60.7085261,81.6770427 61.4320993,84.5106823 64.7688734,88.8826343 C67.8243573,92.8860488 73.7598412,98.9967216 84.6856973,105.371767 C101.811057,115.364263 115.602025,117.063773 121.02932,117.063575 C122.167782,117.063575 122.939196,116.988719 123.295127,116.900001 C124.126094,116.692859 124.745846,115.83142 125.178998,114.933939 C126.634878,116.070049 131.878551,120.216442 137.888675,125.6041 L137.888675,127.083597 L138.706739,126.380188 C147.563514,134.416326 158.722422,145.730487 162.277955,154.541128 L162.277955,154.541128 Z M159.247881,159.522622 C159.045598,159.854326 158.66128,160.043446 158.277955,160.00483 C140.38932,158.222146 130.887583,151.945126 128.401628,150.063624 C114.909022,139.8527 69.5901141,108.283629 39.3620248,97.5277204 C16.0198908,89.2218631 3.42991563,82.508975 0.872694789,77.0050722 C0.792496278,76.8325863 0.775027295,76.6145531 0.816317618,76.2979 C0.961826303,75.1750587 1.1911067,74.2146036 1.46882382,73.38782 C2.05363772,75.8545064 5.28301737,78.2922801 11.0892705,80.6429197 C24.2868883,85.9856245 60.8266402,102.367424 80.9268883,113.102342 C90.5586501,118.246222 103.578998,127.222418 115.066839,135.141915 C127.486491,143.704025 138.212645,151.098738 143.312397,152.930137 C150.044109,155.347712 156.001628,156.409757 159.557955,156.409559 C160.27339,156.409559 160.888973,156.365596 161.396764,156.282027 L159.247881,159.522622 Z M96.6892705,133.164763 C94.8462928,132.688893 84.3746303,129.878027 74.7410819,125.072781 C65.1329429,120.280407 60.2170124,112.99085 59.428129,111.747011 L61.2768635,108.231745 C73.8128437,114.746997 86.9415782,122.745707 98.4292208,130.219632 L96.6892705,133.164763 Z M85.4942333,152.114246 C85.1597419,152.680617 84.5447543,153.040045 83.889469,153.052323 C80.4488734,153.117278 71.5311563,152.794485 62.965598,148.404711 C55.0803375,144.36367 50.5808834,138.416572 48.6007345,135.231227 C48.0911563,134.411771 48.0526452,133.373885 48.5002878,132.52314 L59.0054988,112.55003 C60.351603,114.556292 65.3292705,121.264032 74.3859454,125.781537 C83.7528933,130.453508 93.9011811,133.253086 96.2702134,133.874312 L85.4942333,152.114246 Z M65.0160199,76.7414916 L71.3794938,77.6672911 L71.1956725,77.9780033 L70.9630174,81.691103 L73.9680794,81.4912887 L73.9680794,84.43444 L75.7546799,84.43444 L75.7546799,88.608162 L81.1144814,88.41013 L81.1144814,91.3831841 L85.6802382,91.1851522 L85.6802382,93.4294486 L90.8971117,92.428595 L91.4976079,97.2203748 L94.2910571,96.4240882 L94.8695186,100.078966 L99.1261935,100.078966 L100.978898,103.980791 L105.634184,101.658668 C105.776913,102.415744 106.057012,103.868902 106.334928,105.115712 L106.386342,105.347409 L106.615424,105.411176 C109.819196,106.30628 113.6987,106.471439 116.125499,106.471439 C117.46267,106.471439 118.358948,106.421139 118.457806,106.415396 L118.673985,106.402722 L120.460586,103.243319 C124.038948,106.044482 125.064854,111.83969 125.177012,112.540327 C124.959246,113.462562 124.175722,115.8637 123.102372,116.131439 C122.277161,116.337392 117.97463,116.484332 111.417806,115.137714 C105.488476,113.919818 96.1070372,111.118457 85.0866898,104.687963 C74.3099156,98.3998533 68.4560199,92.3913649 65.4430174,88.4582518 C62.6392457,84.7984228 61.7100149,82.2107389 61.5003871,81.5405986 L65.0160199,76.7414916 Z M71.9762184,78.2170279 L76.3629181,70.7965716 C77.3513052,70.8888545 80.769469,71.0308434 82.4244566,68.829718 C83.6008337,67.2650673 91.8199901,53.2321251 97.8209826,42.9855544 C101.048973,37.4743244 103.598452,33.1211854 104.079643,32.3666835 C105.146243,30.6948975 106.98267,30.7067795 107.510908,30.7481681 C108.105052,31.4636577 111.202819,35.0852665 116.373042,39.2690882 C121.654233,43.5424203 130.242819,49.2962395 141.211752,52.4940599 C141.475176,52.9330968 142.440337,54.990451 140.31865,58.89782 C139.725499,59.9903625 138.50267,62.2342629 136.956665,65.071467 C131.725499,74.6712653 122.969965,90.73859 122.049667,92.5747426 C120.944953,94.7786405 122.019295,97.5261362 122.355772,98.2794498 L118.196566,105.634952 C117.031901,105.685252 111.38128,105.857342 107.058501,104.710736 C106.685102,103.003503 106.32262,101.019222 106.319047,100.998429 L106.224159,100.478793 L101.349122,102.910428 L99.6286253,99.2868385 L95.5480298,99.2868385 L94.9354243,95.4166995 L92.1705608,96.2046688 L91.5799901,91.4909135 L86.4742829,92.4703797 L86.4742829,90.3579726 L81.9085261,90.5560046 L81.9085261,87.5880993 L76.5487246,87.7861312 L76.5487246,83.6423121 L74.7621241,83.6423121 L74.7621241,80.644702 L71.8118511,80.8409517 L71.9762184,78.2170279 Z M109.047385,28.5266454 C110.972943,30.5889504 114.23468,33.8752911 118.381578,37.2628262 C124.273985,42.0761915 133.134134,48.0219037 142.739097,49.9398434 C142.428427,50.3515519 141.937509,50.9822838 141.326293,51.7031202 C130.544159,48.5387672 122.095325,42.8770328 116.891355,38.6684572 C111.916467,34.6454375 108.8854,31.1539357 108.182868,30.3154683 L109.047385,28.5266454 Z M107.895821,26.0645138 L117.884903,7.70140431 C118.888774,9.08366753 121.915871,12.9926208 126.988824,17.3734843 C132.721826,22.3242838 142.310114,28.9023121 155.567881,32.3252948 C151.98535,37.8719726 148.299792,43.5952948 144.540983,49.4495162 C134.476467,47.9624941 125.052149,41.6860685 118.896913,36.6598188 C112.903663,31.7660525 108.77205,27.0831903 107.895821,26.0645138 L107.895821,26.0645138 Z M119.365995,4.97866261 C120.246591,6.20863924 123.308427,10.2494818 128.576913,14.7990685 C134.319047,19.7579873 143.92937,26.3494818 157.220883,29.7677118 C156.822273,30.3841854 156.422074,31.0030353 156.020883,31.6242616 C142.792496,28.2618766 133.23339,21.7139492 127.531355,16.7942407 C122.017707,12.0371165 118.956864,7.85487909 118.306144,6.9267032 L119.365995,4.97866261 Z M239.355077,55.4251312 L232.047484,61.9661276 C222.682124,56.6091645 216.612447,49.9119209 213.162124,45.2173748 C209.920834,40.8072026 208.3254,37.3010464 207.92937,36.3728705 L217.966491,26.8910993 L217.420586,26.3160144 L198.597757,44.0971079 L198.640834,44.3117745 C198.670015,44.4581202 199.12937,46.5952813 201.472993,50.3238274 L194.619593,56.575103 L194.673787,56.8018496 C194.689072,56.8656159 194.840536,57.4654547 195.32669,58.4799726 L181.242124,71.3373969 C179.871801,69.7592801 177.08927,68.4623686 175.764804,68.5938619 C175.135722,68.656836 174.651355,68.9730931 174.364705,69.5085716 C173.744556,70.6668606 174.119543,72.8925421 175.312397,75.2358545 L168.754184,81.183547 L168.905846,81.4574252 C168.911404,81.4675248 169.115871,81.8352702 169.492844,82.4541202 L157.678452,93.2272579 L157.76004,93.4712333 C157.798154,93.5849037 158.23865,94.8853797 159.016218,96.5474621 C158.637459,98.714328 158.130462,101.086355 157.89205,101.53767 C157.863266,101.550344 157.828526,101.565196 157.788228,101.582425 C155.163117,102.710019 152.904854,104.453493 151.075772,106.764724 C149.483712,108.776333 147.553588,112.133767 145.850958,115.095731 C144.375424,117.662622 142.981479,120.086731 142.166591,120.995104 L138.170164,124.791773 C131.991702,119.268859 126.668824,115.08781 125.501181,114.179834 C125.782868,113.438006 125.933737,112.79658 125.968476,112.640927 L125.98396,112.571418 L125.974233,112.50072 C125.934928,112.217535 124.980288,105.682479 120.853241,102.548623 L123.147633,98.491344 L123.251057,98.3081645 L123.157161,98.119836 C123.142074,98.0899332 121.67329,95.0966798 122.75994,92.9290218 C123.674084,91.1051472 132.425449,75.0451497 137.654233,65.4497081 C139.200437,62.6123059 140.423464,60.3678114 141.017012,59.275071 C143.200834,55.2532395 142.375226,52.9532961 141.953588,52.1894867 C142.760139,51.237547 143.34932,50.4551226 143.609171,50.1008434 C143.965896,50.1626294 144.323613,50.2200587 144.682124,50.2701608 L144.934233,50.3054105 L145.071603,50.0915359 C151.904357,39.4492973 158.497906,29.2344117 164.669022,19.7308569 L164.00262,19.3001374 C161.938303,22.4791448 159.825945,25.7393453 157.674084,29.0668766 C144.411752,25.7094424 134.830809,19.1476528 129.119444,14.219825 C123.194283,9.10782743 120.101479,4.65963309 119.789221,4.20059496 L121.80133,0.501753629 L121.103365,0.12390861 L106.940189,26.1607573 L107.111702,26.3671066 C107.125995,26.3841374 107.60262,26.9532813 108.468328,27.9002702 L107.476764,29.9526737 C106.707931,29.9116811 104.647782,30.0009935 103.409667,31.9415089 C102.920337,32.7086847 100.367484,37.0675667 97.1355236,42.5859258 C91.143861,52.8156638 82.9382035,66.8262284 81.7894194,68.3542432 C80.1665906,70.5125937 76.2469876,69.9876109 76.2074839,69.9822641 L75.9444566,69.9450341 L71.8152258,76.9302161 L64.6571117,75.888964 L63.1410819,77.9583982 C61.4982035,76.941702 53.7592457,72.3095359 43.7016774,68.8120931 C37.0553251,66.5008619 30.707732,65.1279062 24.8353747,64.7312481 C17.4845062,64.2347819 10.8599901,65.27544 5.14564764,67.8239135 C4.78197519,67.9413465 0.917558313,69.3465814 0.0288238213,76.1959135 C-0.0126650124,76.5149431 -0.03608933,76.9329886 0.152297767,77.33836 C1.31517618,79.8406921 4.24599504,82.4527339 9.11269479,85.3236036 C15.5813797,89.1392838 25.6689231,93.4963834 39.0952258,98.2737069 C45.6943325,100.62197 53.0174094,103.966928 60.5719504,107.866574 L47.7969628,132.155196 C47.2194938,133.253284 47.2689231,134.591782 47.9257965,135.648877 C49.9494194,138.90373 54.5471365,144.980936 62.6027196,149.109308 C70.769469,153.294714 79.2431166,153.851184 83.1637122,153.851184 C83.4324963,153.851184 83.6802382,153.84861 83.9045558,153.844253 C84.8335881,153.826826 85.7048536,153.317884 86.1783027,152.516449 L99.0946303,130.653124 C111.832099,138.963338 122.47468,146.572519 127.921628,150.694752 C132.236069,153.959904 138.11339,156.577886 145.390213,158.476221 C151.214928,159.99572 156.288079,160.602688 158.198749,160.792997 C158.258303,160.799136 158.317459,160.801909 158.376615,160.801909 C159.002323,160.801909 159.596268,160.474958 159.918055,159.947203 L162.740685,155.691099 C162.832397,155.587132 162.911603,155.471086 162.972149,155.343751 C163.141677,154.987888 163.156764,154.597765 163.01463,154.245268 C159.413042,145.320362 148.219593,133.947188 139.312794,125.859166 L143.579792,122.190029 C143.830313,122.128045 144.013935,122.024672 144.048278,122.004077 L144.076069,121.986056 C144.1253,121.950608 149.073787,118.411381 154.3387,115.882315 C157.49602,114.365984 159.646293,112.609836 160.894333,111.403821 C162.362323,109.98512 163.410462,108.522258 163.808873,107.345156 C166.777608,106.68769 169.976218,106.744723 170.487782,106.758783 C171.518849,107.148114 172.232695,107.364761 172.315672,107.389515 L172.542174,107.45744 L183.079543,96.9807561 C183.390015,97.159975 183.684605,97.3201829 183.960933,97.4611817 L184.179494,97.5726737 L184.377211,97.4275162 C187.54406,95.0996503 190.14396,92.7626749 190.891752,92.0774843 C191.162918,92.230761 191.434481,92.3765125 191.706045,92.5121645 C193.881727,93.5973797 195.588725,94.1409775 196.812546,94.1407795 C197.557558,94.1407795 198.123712,93.9391829 198.50664,93.5351977 C199.216119,92.7870328 199.042223,91.5790378 198.580685,90.7730476 C197.911504,89.6046589 195.846194,87.4789836 195.072993,86.701114 L210.101479,72.7667918 C210.849469,73.0782961 211.241529,73.1375076 211.285201,73.1432506 L211.466442,73.1672124 L217.712397,67.5888496 C221.383266,70.3692186 223.06406,70.7413207 223.170462,70.7625101 L223.365598,70.8015224 L239.885499,56.0146724 L239.355077,55.4251312 Z" id="Fill-7" fill="#14145A" mask="url(#mask-2)"></path>
                    </g>
                    <path d="M65.2335682,144.710325 C61.7308387,144.710325 58.8812109,141.867576 58.8812109,138.373302 C58.8812109,134.879027 61.7308387,132.036278 65.2335682,132.036278 C68.7362978,132.036278 71.5859256,134.879027 71.5859256,138.373302 C71.5859256,141.867576 68.7362978,144.710325 65.2335682,144.710325 M65.2335682,131.24415 C61.2929231,131.24415 58.0871663,134.442169 58.0871663,138.373302 C58.0871663,142.304434 61.2929231,145.502453 65.2335682,145.502453 C69.1742134,145.502453 72.3799702,142.304434 72.3799702,138.373302 C72.3799702,134.442169 69.1742134,131.24415 65.2335682,131.24415" id="Fill-10" fill="#14145A"></path>
                    <path d="M65.2335682,142.135909 C63.1537667,142.135909 61.4618561,140.448083 61.4618561,138.373302 C61.4618561,136.298521 63.1537667,134.610694 65.2335682,134.610694 C67.3133697,134.610694 69.0052804,136.298521 69.0052804,138.373302 C69.0052804,140.448083 67.3133697,142.135909 65.2335682,142.135909 M65.2335682,133.818566 C62.7158511,133.818566 60.6678114,135.86186 60.6678114,138.373302 C60.6678114,140.884743 62.7158511,142.928037 65.2335682,142.928037 C67.7512854,142.928037 69.7993251,140.884743 69.7993251,138.373302 C69.7993251,135.86186 67.7512854,133.818566 65.2335682,133.818566" id="Fill-12" fill="#14145A"></path>
                </g>
                <path d="M134.712671,113.089705 C134.95184,113.034488 135.190545,113.160907 135.284265,113.378654 L135.312332,113.464414 L136.662038,119.310635 C136.724157,119.5797 136.556394,119.848177 136.287329,119.910295 C136.04816,119.965512 135.809455,119.839093 135.715735,119.621346 L135.687668,119.535586 L134.337962,113.689365 C134.275843,113.4203 134.443606,113.151823 134.712671,113.089705 Z" id="Line-3" fill="#14145A" fill-rule="nonzero"></path>
                <path d="M140.51786,111.545499 L140.607769,111.553173 C140.849499,111.595797 141.019832,111.805435 141.021022,112.042492 L141.013348,112.132401 L139.971459,118.041247 C139.923508,118.313194 139.664179,118.494779 139.392231,118.446827 C139.150501,118.404203 138.980168,118.194565 138.978978,117.957508 L138.986652,117.867599 L140.028541,111.958753 C140.071164,111.717022 140.280802,111.546689 140.51786,111.545499 Z" id="Line-3-Copy" fill="#14145A" fill-rule="nonzero"></path>
                <path d="M146.551224,123.298101 L152.543001,123.612116 C152.818765,123.626569 153.0306,123.861835 153.016148,124.137599 C153.003302,124.382723 152.815984,124.577334 152.580839,124.607405 L152.490665,124.610746 L146.498888,124.29673 C146.223124,124.282278 146.011289,124.047011 146.025741,123.771247 C146.038588,123.526124 146.225905,123.331512 146.46105,123.301442 L146.551224,123.298101 Z" id="Line-3-Copy-2" fill="#14145A" fill-rule="nonzero"></path>
                <path d="M144.667191,127.075448 C144.743042,126.842002 144.974346,126.702503 145.209261,126.734317 L145.297228,126.754429 L151.003567,128.608531 C151.266194,128.693863 151.409919,128.97594 151.324586,129.238567 C151.248735,129.472014 151.017432,129.611513 150.782516,129.579699 L150.69455,129.559587 L144.988211,127.705485 C144.725584,127.620152 144.581858,127.338075 144.667191,127.075448 Z" id="Line-3-Copy-3" fill="#14145A" fill-rule="nonzero"></path>
            </g>
        </g>
    </g>
</svg>