<?xml version="1.0" encoding="utf-8"?>
<!-- Generator: Adobe Illustrator 24.1.3, SVG Export Plug-In . SVG Version: 6.00 Build 0)  -->
<svg version="1.1" id="Layer_1" xmlns="http://www.w3.org/2000/svg" xmlns:xlink="http://www.w3.org/1999/xlink" x="0px" y="0px"
	 viewBox="0 0 400 344" style="enable-background:new 0 0 400 344;" xml:space="preserve">
<style type="text/css">
	.st0{enable-background:new    ;}
	.st1{fill:#FFFFFF;}
	.st2{fill:#A5E0F0;}
</style>
<desc>Created with Sketch.</desc>
<g id="Page-1">
	<g id="Installation-_x26_-Repair" transform="translate(-61.000000, -513.000000)">
		<g class="st0">
			<path class="st1" d="M74.2,563.2c0-5.7,1.5-10.3,4.5-14s7.5-5.5,13.6-5.5c6.2,0,10.8,1.8,13.7,5.4s4.3,8.3,4.3,14v24H102v-24.8
				c0-7.7-3.3-11.6-9.8-11.6c-3.5,0-6,1.1-7.5,3.4s-2.3,5-2.3,8.3v105.2c0,3.3,0.8,6,2.4,8.3s4.2,3.5,7.6,3.5c3.6,0,6.2-1.1,7.7-3.4
				s2.2-5.1,2.2-8.4v-42.8H92v-7h18.4V685h-6.6v-6.6c-2.3,5.2-6.7,7.8-13.4,7.8c-5.5,0-9.5-1.7-12.2-5.2s-4-8-4-13.5V563.2z"/>
		</g>
		<g class="st0">
			<path class="st2" d="M125.8,587.3c3.8-8.8,8.8-16.4,15.2-22.7s13.9-11.4,22.7-15.2s18-5.7,27.6-5.7s18.8,1.9,27.6,5.7
				s16.4,8.8,22.7,15.2s11.4,13.9,15.2,22.7s5.7,18,5.7,27.6s-1.9,18.8-5.7,27.6s-8.8,16.4-15.2,22.7s-13.9,11.4-22.7,15.2
				s-18,5.7-27.6,5.7s-18.8-1.9-27.6-5.7s-16.4-8.8-22.7-15.2s-11.4-13.9-15.2-22.7s-5.7-18-5.7-27.6S122.1,596.1,125.8,587.3z
				 M133.4,640.2c3.3,7.9,7.8,14.8,13.4,20.5s12.3,10.2,20.1,13.5s15.9,5,24.5,5c11.4,0,21.9-2.8,31.5-8.4s17.3-13.4,22.9-23.2
				s8.4-20.7,8.4-32.5s-2.8-22.6-8.4-32.5s-13.3-17.6-22.9-23.2s-20.1-8.4-31.5-8.4c-8.5,0-16.7,1.7-24.5,5s-14.5,7.8-20.1,13.5
				s-10.1,12.5-13.4,20.5s-5,16.3-5,25.2S130,632.2,133.4,640.2z"/>
			<path class="st2" d="M277.2,587.3c3.8-8.8,8.8-16.4,15.2-22.7s13.9-11.4,22.7-15.2s18-5.7,27.6-5.7s18.8,1.9,27.6,5.7
				s16.4,8.8,22.7,15.2s11.4,13.9,15.2,22.7s5.7,18,5.7,27.6s-1.9,18.8-5.7,27.6s-8.8,16.4-15.2,22.7s-13.9,11.4-22.7,15.2
				s-18,5.7-27.6,5.7s-18.8-1.9-27.6-5.7s-16.4-8.8-22.7-15.2s-11.4-13.9-15.2-22.7s-5.7-18-5.7-27.6S273.4,596.1,277.2,587.3z
				 M284.7,640.2c3.3,7.9,7.8,14.8,13.4,20.5s12.3,10.2,20.1,13.5s15.9,5,24.5,5c11.4,0,21.9-2.8,31.5-8.4s17.3-13.4,22.9-23.2
				s8.4-20.7,8.4-32.5s-2.8-22.6-8.4-32.5s-13.3-17.6-22.9-23.2s-20.2-8.4-31.5-8.4c-8.5,0-16.7,1.7-24.5,5s-14.5,7.8-20.1,13.5
				s-10.1,12.5-13.4,20.5s-5,16.3-5,25.2S281.4,632.2,284.7,640.2z"/>
		</g>
		<g class="st0">
			<path class="st1" d="M423.9,545h17.5c6.4,0,11.2,1.9,14.4,5.6s4.8,8.4,4.8,14.1v100.8c0,5.7-1.6,10.4-4.7,14.1s-7.9,5.5-14.5,5.5
				h-17.5V545z M441.8,677.8c3.7,0,6.4-1.2,8.1-3.5s2.5-5.2,2.5-8.5V564.2c0-3.3-0.8-6.2-2.5-8.6s-4.4-3.6-8-3.6h-9.7v125.8H441.8z"
				/>
		</g>
		<g class="st0">
			<path class="st1" d="M86.4,705h10.1L112,845h-7.8l-4.6-43H82.8l-4.4,43h-7.6L86.4,705z M99,795.2L91.2,721l-7.5,74.2H99z"/>
			<path class="st1" d="M118.2,801h8.2v26.7c0,3.3,0.7,6,2.2,8.3s3.9,3.4,7.4,3.4c3.5,0,6-1.1,7.6-3.4s2.3-5,2.3-8.3v-22.5
				c0-6.6-0.5-11.4-1.6-14.4s-2.9-5.9-5.5-8.8l-10-11.4c-3.1-3.6-5.5-7.5-7.2-11.7s-2.5-10.3-2.5-18.3V723c0-5.4,1.3-10,4-13.7
				s6.9-5.6,12.8-5.6s10.2,1.9,12.9,5.6s4.1,8.3,4.1,13.7v24.2h-8.2v-25c0-3.3-0.7-6-2.1-8.2s-3.6-3.3-6.7-3.3c-3,0-5.2,1.1-6.5,3.3
				s-2.1,4.9-2.1,8.2V740c0,6.4,0.5,11.3,1.6,14.5s2.8,6.2,5.3,9.1l9.4,10.8c2.5,2.9,4.4,5.3,5.6,7s2.3,4.7,3.4,8.7
				s1.6,8.9,1.6,14.6v21.9c0,5.5-1.4,10.1-4.3,13.9s-7.5,5.7-13.8,5.7c-6.2,0-10.8-1.9-13.7-5.7s-4.3-8.4-4.3-13.9V801z"/>
			<path class="st1" d="M182.4,705h8.2L212,815.6V705h7.2v140h-7.6l-22-111.8V845h-7.2V705z"/>
			<path class="st1" d="M230.8,705h30.3v7H239V768h20.6v6.9H239v62.8h22.9v7.2h-31.1V705z"/>
			<path class="st1" d="M274.2,705l8.4,116.6L292.6,705h8.4l10.2,115.8l8.4-115.8h7.2L316,845h-9.6l-9.6-113.6L287,845h-9.6
				l-10.9-140H274.2z"/>
		</g>
	</g>
</g>
</svg>
