<?xml version="1.0" encoding="utf-8"?>
<!-- Generator: Adobe Illustrator 24.1.3, SVG Export Plug-In . SVG Version: 6.00 Build 0)  -->
<svg version="1.1" id="Layer_1" xmlns="http://www.w3.org/2000/svg" xmlns:xlink="http://www.w3.org/1999/xlink" x="0px" y="0px"
	 viewBox="0 0 490 425" style="enable-background:new 0 0 490 425;" xml:space="preserve">
<style type="text/css">
	.st0{enable-background:new    ;}
	.st1{fill:#FFFFFF;}
	.st2{fill:#1E73DC;}
</style>
<desc>Created with Sketch.</desc>
<g id="Page-1">
	<g id="Contact-Us" transform="translate(-56.000000, -391.000000)">
		<g id="Group" transform="translate(20.000000, -120.000000)">
			<g class="st0">
				<path class="st1" d="M38,915.2V907h62v-19.8H38V879h140v8.2h-71V907h71v8.2H38z"/>
				<path class="st1" d="M38,867.2v-30.3h7V859H101v-20.6h6.9V859h62.8v-22.9h7.2v31.1H38z"/>
				<path class="st1" d="M38,828v-8.2h132.8v-22.3h7.2V828H38z"/>
				<path class="st1" d="M38,790v-8.2h132.8v-22.3h7.2V790H38z"/>
			</g>
			<g class="st0">
				<path class="st2" d="M80.3,747.4c-8.8-3.8-16.4-8.8-22.7-15.2s-11.4-13.9-15.2-22.7s-5.7-18-5.7-27.6s1.9-18.8,5.7-27.6
					s8.8-16.4,15.2-22.7s13.9-11.4,22.7-15.2s18-5.7,27.6-5.7s18.8,1.9,27.6,5.7s16.4,8.8,22.7,15.2s11.4,13.9,15.2,22.7
					s5.7,18,5.7,27.6s-1.9,18.8-5.7,27.6s-8.8,16.4-15.2,22.7s-13.9,11.4-22.7,15.2s-18,5.7-27.6,5.7S89.1,751.1,80.3,747.4z
					 M133.2,739.8c7.9-3.3,14.8-7.8,20.5-13.4c5.7-5.6,10.2-12.3,13.5-20.1s5-15.9,5-24.5c0-11.4-2.8-21.9-8.4-31.5
					s-13.4-17.3-23.2-22.9s-20.7-8.4-32.5-8.4s-22.6,2.8-32.5,8.4s-17.6,13.3-23.2,22.9s-8.4,20.1-8.4,31.5c0,8.5,1.7,16.7,5,24.5
					s7.8,14.5,13.5,20.1c5.7,5.6,12.5,10.1,20.5,13.4s16.3,5,25.2,5S125.2,743.2,133.2,739.8z"/>
			</g>
			<g class="st0">
				<path class="st1" d="M193,935.2V919c0-6.2,1.9-10.8,5.6-13.9s8.4-4.6,14.1-4.6h30c7.4,0,12.6,2.7,15.6,8c1.2-3.1,3.4-5.4,6.3-7
					s6.3-2.4,10.1-2.4h38.6c5.8,0,10.5,1.5,14.3,4.6s5.6,7.8,5.6,14.1v17.3H193z M255.2,919.2c0-3.6-1.2-6.2-3.5-7.9
					s-5.2-2.5-8.5-2.5h-31.3c-3.4,0-6.2,0.8-8.5,2.5s-3.5,4.3-3.5,8v7.8h55.4V919.2z M326.2,918.2c0-3.8-1.2-6.5-3.5-8.3
					s-5.2-2.6-8.7-2.6h-39.7c-3.5,0-6.3,0.9-8.7,2.6s-3.5,4.5-3.5,8.3v8.8h64.2V918.2z"/>
				<path class="st1" d="M211.8,889.6c-5.9,0-10.7-1.5-14.4-4.6s-5.6-7.7-5.6-13.8c0-6.2,1.9-10.9,5.6-13.9s8.5-4.5,14.4-4.5h102.3
					c5.9,0,10.7,1.5,14.5,4.4s5.6,7.6,5.6,13.9c0,6.1-1.9,10.7-5.6,13.8s-8.5,4.6-14.4,4.6H211.8z M323.7,878.9
					c2.3-1.7,3.5-4.2,3.5-7.8c0-3.6-1.2-6.2-3.5-7.8s-5.2-2.4-8.5-2.4H210.8c-3.4,0-6.2,0.8-8.5,2.4s-3.5,4.2-3.5,7.8
					c0,3.5,1.2,6.1,3.5,7.8s5.2,2.5,8.5,2.5h104.4C318.5,881.4,321.4,880.6,323.7,878.9z"/>
				<path class="st1" d="M193,841.7v-8.2l110.6-21.4H193v-7.2h140v7.6l-111.8,22H333v7.2H193z"/>
				<path class="st1" d="M285.4,795.4v-8h32.1c2.7,0,5.1-0.6,7-1.9s2.9-3.3,2.9-6.1c0-2.9-1-4.9-2.9-6.2s-4.2-2-7-2H193V763h123.6
					c5.1,0,9.4,1.3,12.6,4s4.9,6.8,4.9,12.5c0,5.4-1.7,9.4-5,12.1s-7.5,4-12.6,4H285.4z"/>
			</g>
			<g class="st0">
				<path class="st2" d="M235.3,747c-8.8-3.8-16.4-8.8-22.7-15.2s-11.4-13.9-15.2-22.7s-5.7-18-5.7-27.6s1.9-18.8,5.7-27.6
					s8.8-16.4,15.2-22.7s13.9-11.4,22.7-15.2s18-5.7,27.6-5.7s18.8,1.9,27.6,5.7s16.4,8.8,22.7,15.2s11.4,13.9,15.2,22.7
					s5.7,18,5.7,27.6s-1.9,18.8-5.7,27.6s-8.8,16.4-15.2,22.7s-13.9,11.4-22.7,15.2s-18,5.7-27.6,5.7S244.1,750.7,235.3,747z
					 M288.2,739.4c7.9-3.3,14.8-7.8,20.5-13.4c5.7-5.6,10.2-12.3,13.5-20.1s5-15.9,5-24.5c0-11.4-2.8-21.9-8.4-31.5
					s-13.4-17.3-23.2-22.9s-20.7-8.4-32.5-8.4s-22.6,2.8-32.5,8.4s-17.6,13.3-23.2,22.9s-8.4,20.1-8.4,31.5c0,8.5,1.7,16.7,5,24.5
					s7.8,14.5,13.5,20.1c5.7,5.6,12.5,10.1,20.5,13.4s16.3,5,25.2,5S280.2,742.8,288.2,739.4z"/>
			</g>
			<g class="st0">
				<path class="st1" d="M193,600.5v-8.2h122.5c3.3,0,6.2-0.8,8.5-2.5s3.5-4.2,3.5-7.8s-1.2-6.1-3.5-7.6s-5.2-2.3-8.5-2.3H193v-8
					h121.2c5.9,0,10.7,1.5,14.5,4.4s5.6,7.5,5.6,13.7c0,6.1-1.9,10.7-5.6,13.7s-8.5,4.5-14.4,4.5H193z"/>
				<path class="st1" d="M193,552.5v-17.9c0-6.1,1.9-10.7,5.6-13.7s8.4-4.5,14.1-4.5h38.2c8,0,13.3,3,16,9c3.1-6,8.8-9,17.2-9h27.2
					c8.7,0,16-0.7,21.8-2.1v8.2c-5.1,1.4-12.4,2.1-21.8,2.1h-28.4c-3.3,0-6.2,0.9-8.5,2.6s-3.5,4.5-3.5,8.3v8.8H333v8.2H193z
					 M263.4,535.5c0-3.8-1.2-6.5-3.5-8.3s-5.2-2.6-8.5-2.6H212c-3.3,0-6.2,0.9-8.5,2.6s-3.5,4.5-3.5,8.3v8.8h63.4V535.5z"/>
			</g>
			<g class="st0">
				<path class="st1" d="M355.8,513h8.2v62h19.8v-62h8.2v140h-8.2v-71H364v71h-8.2V513z"/>
				<path class="st1" d="M403.2,531.8c0-5.9,1.5-10.7,4.6-14.4s7.7-5.6,13.8-5.6c6.2,0,10.9,1.9,13.9,5.6s4.5,8.5,4.5,14.4v102.3
					c0,5.9-1.5,10.7-4.4,14.5s-7.6,5.6-13.9,5.6c-6.1,0-10.7-1.9-13.8-5.6s-4.6-8.5-4.6-14.4V531.8z M413.9,643.7
					c1.7,2.3,4.2,3.5,7.8,3.5c3.6,0,6.2-1.2,7.8-3.5s2.4-5.2,2.4-8.5V530.8c0-3.4-0.8-6.2-2.4-8.5s-4.2-3.5-7.8-3.5
					c-3.5,0-6.1,1.2-7.8,3.5s-2.5,5.2-2.5,8.5v104.4C411.4,638.5,412.3,641.4,413.9,643.7z"/>
				<path class="st1" d="M451.2,513h8.2v132.8h22.3v7.2h-30.5V513z"/>
				<path class="st1" d="M500.8,513h10.1l15.5,140h-7.8l-4.6-43h-16.8l-4.4,43h-7.6L500.8,513z M513.4,603.2l-7.8-74.2l-7.5,74.2
					H513.4z"/>
			</g>
		</g>
	</g>
</g>
</svg>
