<?xml version="1.0" encoding="UTF-8"?>
<svg width="529px" height="304px" viewBox="0 0 529 304" version="1.1" xmlns="http://www.w3.org/2000/svg" xmlns:xlink="http://www.w3.org/1999/xlink">
    <!-- Generator: Sketch 64 (93537) - https://sketch.com -->
    <title>LooK FOR SUNGLASSES</title>
    <desc>Created with Sketch.</desc>
    <g id="Page-1" stroke="none" stroke-width="1" fill="none" fill-rule="evenodd">
        <g id="Search-Model" transform="translate(-64.000000, -513.000000)" fill-rule="nonzero">
            <g id="LooK-FOR-SUNGLASSES" transform="translate(64.394531, 513.789062)">
                <polygon id="L" fill="#FFFFFF" points="31.8359375 141.210938 31.8359375 133.984375 9.5703125 133.984375 9.5703125 1.171875 1.3671875 1.171875 1.3671875 141.210938"></polygon>
                <path d="M109.570312,142.382812 C119.20573,142.382812 128.417969,140.494792 137.207031,136.71875 C145.996094,132.942708 153.564453,127.880859 159.912109,121.533203 C166.259766,115.185547 171.321614,107.617188 175.097656,98.828125 C178.873698,90.0390625 180.761719,80.8268234 180.761719,71.1914062 C180.761719,61.5559891 178.873698,52.34375 175.097656,43.5546875 C171.321614,34.765625 166.259766,27.1972656 159.912109,20.8496094 C153.564453,14.5019531 145.996094,9.44010466 137.207031,5.6640625 C128.417969,1.88802034 119.20573,0 109.570312,0 C99.9348953,0 90.7226562,1.88802034 81.9335938,5.6640625 C73.1445312,9.44010466 65.5761719,14.5019531 59.2285156,20.8496094 C52.8808594,27.1972656 47.8190109,34.765625 44.0429688,43.5546875 C40.2669266,52.34375 38.3789062,61.5559891 38.3789062,71.1914062 C38.3789062,80.8268234 40.2669266,90.0390625 44.0429688,98.828125 C47.8190109,107.617188 52.8808594,115.185547 59.2285156,121.533203 C65.5761719,127.880859 73.1445312,132.942708 81.9335938,136.71875 C90.7226562,140.494792 99.9348953,142.382812 109.570312,142.382812 Z M109.570312,135.351562 C101.041667,135.351562 92.8873703,133.691406 85.1074219,130.371094 C77.3274735,127.050781 70.6217453,122.542317 64.9902344,116.845703 C59.3587235,111.149089 54.8828125,104.329427 51.5625,96.3867188 C48.2421875,88.4440109 46.5820312,80.0455734 46.5820312,71.1914062 C46.5820312,62.3372391 48.2421875,53.9388016 51.5625,45.9960938 C54.8828125,38.0533859 59.3587235,31.2337235 64.9902344,25.5371094 C70.6217453,19.8404953 77.3274735,15.3320312 85.1074219,12.0117188 C92.8873703,8.69140625 101.041667,7.03125 109.570312,7.03125 C120.963542,7.03125 131.477864,9.84700471 141.113281,15.4785156 C150.748698,21.1100265 158.382161,28.8574219 164.013672,38.7207031 C169.645183,48.5839844 172.460938,59.4075516 172.460938,71.1914062 C172.460938,82.9752609 169.645183,93.7988281 164.013672,103.662109 C158.382161,113.525391 150.748698,121.272786 141.113281,126.904297 C131.477864,132.535808 120.963542,135.351562 109.570312,135.351562 Z M260.9375,142.382812 C270.572917,142.382812 279.785156,140.494792 288.574219,136.71875 C297.363281,132.942708 304.931641,127.880859 311.279297,121.533203 C317.626953,115.185547 322.688802,107.617188 326.464844,98.828125 C330.240886,90.0390625 332.128906,80.8268234 332.128906,71.1914062 C332.128906,61.5559891 330.240886,52.34375 326.464844,43.5546875 C322.688802,34.765625 317.626953,27.1972656 311.279297,20.8496094 C304.931641,14.5019531 297.363281,9.44010466 288.574219,5.6640625 C279.785156,1.88802034 270.572917,0 260.9375,0 C251.302083,0 242.089844,1.88802034 233.300781,5.6640625 C224.511719,9.44010466 216.943359,14.5019531 210.595703,20.8496094 C204.248047,27.1972656 199.186198,34.765625 195.410156,43.5546875 C191.634114,52.34375 189.746094,61.5559891 189.746094,71.1914062 C189.746094,80.8268234 191.634114,90.0390625 195.410156,98.828125 C199.186198,107.617188 204.248047,115.185547 210.595703,121.533203 C216.943359,127.880859 224.511719,132.942708 233.300781,136.71875 C242.089844,140.494792 251.302083,142.382812 260.9375,142.382812 Z M260.9375,135.351562 C252.408855,135.351562 244.254558,133.691406 236.474609,130.371094 C228.694661,127.050781 221.988933,122.542317 216.357422,116.845703 C210.725911,111.149089 206.25,104.329427 202.929688,96.3867188 C199.609375,88.4440109 197.949219,80.0455734 197.949219,71.1914062 C197.949219,62.3372391 199.609375,53.9388016 202.929688,45.9960938 C206.25,38.0533859 210.725911,31.2337235 216.357422,25.5371094 C221.988933,19.8404953 228.694661,15.3320312 236.474609,12.0117188 C244.254558,8.69140625 252.408855,7.03125 260.9375,7.03125 C272.33073,7.03125 282.845052,9.84700471 292.480469,15.4785156 C302.115886,21.1100265 309.749348,28.8574219 315.380859,38.7207031 C321.01237,48.5839844 323.828125,59.4075516 323.828125,71.1914062 C323.828125,82.9752609 321.01237,93.7988281 315.380859,103.662109 C309.749348,113.525391 302.115886,121.272786 292.480469,126.904297 C282.845052,132.535808 272.33073,135.351562 260.9375,135.351562 Z" id="oo" fill="#F07350"></path>
                <path d="M350.292969,141.210938 L350.292969,70.9960938 L372.167969,141.210938 L380.761719,141.210938 L357.519531,67.1875 L379.6875,1.171875 L371.972656,1.171875 L350.292969,65.234375 L350.292969,1.171875 L342.089844,1.171875 L342.089844,141.210938 L350.292969,141.210938 Z M411.914062,141.210938 L411.914062,75.1953125 L432.714844,75.1953125 L432.714844,67.96875 L411.914062,67.96875 L411.914062,8.203125 L434.375,8.203125 L434.375,1.171875 L403.710938,1.171875 L403.710938,141.210938 L411.914062,141.210938 Z M460.351562,142.382812 C466.666667,142.382812 471.305339,140.527344 474.267578,136.816406 C477.229817,133.105469 478.710938,128.287761 478.710938,122.363281 L478.710938,20.0195312 C478.710938,14.1601562 477.213542,9.35872346 474.21875,5.61523438 C471.223958,1.87174529 466.601562,0 460.351562,0 C454.23177,0 449.625652,1.87174529 446.533203,5.61523438 C443.440755,9.35872346 441.894531,14.1601562 441.894531,20.0195312 L441.894531,122.363281 C441.894531,128.222656 443.440755,133.024089 446.533203,136.767578 C449.625652,140.511067 454.23177,142.382812 460.351562,142.382812 Z M460.351562,135.449219 C456.835938,135.449219 454.248047,134.277344 452.587891,131.933594 C450.927734,129.589844 450.097656,126.757812 450.097656,123.4375 L450.097656,19.0429688 C450.097656,15.7226562 450.927734,12.890625 452.587891,10.546875 C454.248047,8.203125 456.835938,7.03125 460.351562,7.03125 C463.932292,7.03125 466.520183,8.18684846 468.115234,10.4980469 C469.710286,12.8092453 470.507812,15.6575516 470.507812,19.0429688 L470.507812,123.4375 C470.507812,126.757812 469.710286,129.589844 468.115234,131.933594 C466.520183,134.277344 463.932292,135.449219 460.351562,135.449219 Z M498.046875,141.210938 L498.046875,79.0039062 L506.835938,79.0039062 C510.61198,79.0039062 513.36263,80.1757812 515.087891,82.5195312 C516.813152,84.8632812 517.675781,87.6953125 517.675781,91.015625 L517.675781,119.433594 C517.675781,128.808594 518.359375,136.067708 519.726562,141.210938 L527.929688,141.210938 C526.5625,135.416667 525.878906,128.157552 525.878906,119.433594 L525.878906,92.1875 C525.878906,83.7890625 522.884114,78.0598953 516.894531,75 C522.884114,72.3307297 525.878906,66.9921875 525.878906,58.984375 L525.878906,20.8007812 C525.878906,15.1367188 524.381511,10.4492188 521.386719,6.73828125 C518.391927,3.02734375 513.834636,1.171875 507.714844,1.171875 L489.84375,1.171875 L489.84375,141.210938 L498.046875,141.210938 Z M506.835938,71.5820312 L498.046875,71.5820312 L498.046875,8.203125 L506.835938,8.203125 C510.61198,8.203125 513.36263,9.375 515.087891,11.71875 C516.813152,14.0625 517.675781,16.8945312 517.675781,20.2148438 L517.675781,59.5703125 C517.675781,62.9557297 516.813152,65.804036 515.087891,68.1152344 C513.36263,70.4264328 510.61198,71.5820312 506.835938,71.5820312 Z M17.96875,302.382812 C24.2838547,302.382812 28.8736984,300.494792 31.7382812,296.71875 C34.6028641,292.942708 36.0351562,288.320312 36.0351562,282.851562 L36.0351562,260.976562 C36.0351562,255.247395 35.4980469,250.364583 34.4238281,246.328125 C33.3496094,242.291667 32.210286,239.394531 31.0058594,237.636719 C29.8014328,235.878906 27.9296875,233.535156 25.390625,230.605469 L16.015625,219.765625 C13.5416672,216.901042 11.7838547,213.873698 10.7421875,210.683594 C9.70052034,207.493489 9.1796875,202.675781 9.1796875,196.230469 L9.1796875,178.457031 C9.1796875,175.201823 9.86328125,172.483723 11.2304687,170.302734 C12.5976562,168.121745 14.7786453,167.03125 17.7734375,167.03125 C20.8984375,167.03125 23.1445313,168.121745 24.5117188,170.302734 C25.8789062,172.483723 26.5625,175.201823 26.5625,178.457031 L26.5625,203.457031 L34.765625,203.457031 L34.765625,179.238281 C34.765625,173.834636 33.414714,169.277344 30.7128906,165.566406 C28.0110672,161.855469 23.6979172,160 17.7734375,160 C11.8489578,160 7.56835938,161.855469 4.93164062,165.566406 C2.29492188,169.277344 0.9765625,173.834636 0.9765625,179.238281 L0.9765625,196.816406 C0.9765625,204.759114 1.80664062,210.846355 3.46679688,215.078125 C5.12695312,219.309895 7.51953125,223.216145 10.6445312,226.796875 L20.6054688,238.222656 C23.2096359,241.152344 25.0325516,244.082031 26.0742188,247.011719 C27.1158859,249.941406 27.6367188,254.726562 27.6367188,261.367188 L27.6367188,283.828125 C27.6367188,287.083333 26.8717453,289.833984 25.3417969,292.080078 C23.8118485,294.326172 21.2890625,295.449219 17.7734375,295.449219 C14.3229172,295.449219 11.8652344,294.326172 10.4003906,292.080078 C8.93554688,289.833984 8.203125,287.083333 8.203125,283.828125 L8.203125,257.167969 L0,257.167969 L0,282.851562 C0,288.320312 1.43229216,292.942708 4.296875,296.71875 C7.16145784,300.494792 11.71875,302.382812 17.96875,302.382812 Z M64.6484375,302.382812 C70.8333328,302.382812 75.4069015,300.527344 78.3691406,296.816406 C81.3313797,293.105469 82.8125,288.287761 82.8125,282.363281 L82.8125,161.171875 L74.8046875,161.171875 L74.8046875,283.632812 C74.8046875,286.953125 74.0234375,289.785156 72.4609375,292.128906 C70.8984375,294.472656 68.359375,295.644531 64.84375,295.644531 C61.328125,295.644531 58.7402344,294.472656 57.0800781,292.128906 C55.4199219,289.785156 54.5898438,286.953125 54.5898438,283.632812 L54.5898438,161.171875 L46.3867188,161.171875 L46.3867188,282.363281 C46.3867188,288.222656 47.9003906,293.024089 50.9277344,296.767578 C53.9550781,300.511067 58.5286453,302.382812 64.6484375,302.382812 Z M101.5625,301.210938 L101.5625,189.394531 L123.535156,301.210938 L131.152344,301.210938 L131.152344,161.171875 L123.925781,161.171875 L123.925781,271.816406 L102.539062,161.171875 L94.3359375,161.171875 L94.3359375,301.210938 L101.5625,301.210938 Z M158.398438,302.382812 C165.039062,302.382812 169.498698,299.778645 171.777344,294.570312 L171.777344,301.210938 L178.417969,301.210938 L178.417969,234.023438 L160.058594,234.023438 L160.058594,241.054688 L170.410156,241.054688 L170.410156,283.828125 C170.410156,287.148438 169.661458,289.947917 168.164062,292.226562 C166.666667,294.505208 164.095052,295.644531 160.449219,295.644531 C156.998698,295.644531 154.459636,294.488933 152.832031,292.177734 C151.204427,289.866536 150.390625,287.083333 150.390625,283.828125 L150.390625,178.652344 C150.390625,175.397136 151.171875,172.646484 152.734375,170.400391 C154.296875,168.154297 156.803386,167.03125 160.253906,167.03125 C166.764323,167.03125 170.019531,170.904948 170.019531,178.652344 L170.019531,203.457031 L178.222656,203.457031 L178.222656,179.433594 C178.222656,173.704427 176.790364,169.033203 173.925781,165.419922 C171.061198,161.806641 166.503906,160 160.253906,160 C154.199219,160 149.67448,161.822917 146.679688,165.46875 C143.684895,169.114583 142.1875,173.769531 142.1875,179.433594 L142.1875,283.632812 C142.1875,289.166667 143.522136,293.67513 146.191406,297.158203 C148.860677,300.641277 152.929688,302.382812 158.398438,302.382812 Z M219.628906,301.210938 L219.628906,293.984375 L197.363281,293.984375 L197.363281,161.171875 L189.160156,161.171875 L189.160156,301.210938 L219.628906,301.210938 Z M230.761719,301.210938 L235.15625,258.242188 L251.953125,258.242188 L256.542969,301.210938 L264.355469,301.210938 L248.828125,161.171875 L238.769531,161.171875 L223.144531,301.210938 L230.761719,301.210938 Z M251.367188,251.40625 L236.035156,251.40625 L243.554688,177.1875 L251.367188,251.40625 Z M288.574219,302.382812 C294.889323,302.382812 299.479167,300.494792 302.34375,296.71875 C305.208333,292.942708 306.640625,288.320312 306.640625,282.851562 L306.640625,260.976562 C306.640625,255.247395 306.103516,250.364583 305.029297,246.328125 C303.955078,242.291667 302.815755,239.394531 301.611328,237.636719 C300.406902,235.878906 298.535156,233.535156 295.996094,230.605469 L286.621094,219.765625 C284.147136,216.901042 282.389323,213.873698 281.347656,210.683594 C280.305989,207.493489 279.785156,202.675781 279.785156,196.230469 L279.785156,178.457031 C279.785156,175.201823 280.46875,172.483723 281.835938,170.302734 C283.203125,168.121745 285.384114,167.03125 288.378906,167.03125 C291.503906,167.03125 293.75,168.121745 295.117188,170.302734 C296.484375,172.483723 297.167969,175.201823 297.167969,178.457031 L297.167969,203.457031 L305.371094,203.457031 L305.371094,179.238281 C305.371094,173.834636 304.020183,169.277344 301.318359,165.566406 C298.616536,161.855469 294.303386,160 288.378906,160 C282.454427,160 278.173828,161.855469 275.537109,165.566406 C272.900391,169.277344 271.582031,173.834636 271.582031,179.238281 L271.582031,196.816406 C271.582031,204.759114 272.412109,210.846355 274.072266,215.078125 C275.732422,219.309895 278.125,223.216145 281.25,226.796875 L291.210938,238.222656 C293.815105,241.152344 295.63802,244.082031 296.679688,247.011719 C297.721355,249.941406 298.242188,254.726562 298.242188,261.367188 L298.242188,283.828125 C298.242188,287.083333 297.477214,289.833984 295.947266,292.080078 C294.417317,294.326172 291.894531,295.449219 288.378906,295.449219 C284.928386,295.449219 282.470703,294.326172 281.005859,292.080078 C279.541016,289.833984 278.808594,287.083333 278.808594,283.828125 L278.808594,257.167969 L270.605469,257.167969 L270.605469,282.851562 C270.605469,288.320312 272.037761,292.942708 274.902344,296.71875 C277.766927,300.494792 282.324219,302.382812 288.574219,302.382812 Z M333.789062,302.382812 C340.104167,302.382812 344.694011,300.494792 347.558594,296.71875 C350.423177,292.942708 351.855469,288.320312 351.855469,282.851562 L351.855469,260.976562 C351.855469,255.247395 351.318359,250.364583 350.244141,246.328125 C349.169922,242.291667 348.030598,239.394531 346.826172,237.636719 C345.621745,235.878906 343.75,233.535156 341.210938,230.605469 L331.835938,219.765625 C329.36198,216.901042 327.604167,213.873698 326.5625,210.683594 C325.520833,207.493489 325,202.675781 325,196.230469 L325,178.457031 C325,175.201823 325.683594,172.483723 327.050781,170.302734 C328.417969,168.121745 330.598958,167.03125 333.59375,167.03125 C336.71875,167.03125 338.964844,168.121745 340.332031,170.302734 C341.699219,172.483723 342.382812,175.201823 342.382812,178.457031 L342.382812,203.457031 L350.585938,203.457031 L350.585938,179.238281 C350.585938,173.834636 349.235027,169.277344 346.533203,165.566406 C343.83138,161.855469 339.51823,160 333.59375,160 C327.66927,160 323.388672,161.855469 320.751953,165.566406 C318.115234,169.277344 316.796875,173.834636 316.796875,179.238281 L316.796875,196.816406 C316.796875,204.759114 317.626953,210.846355 319.287109,215.078125 C320.947266,219.309895 323.339844,223.216145 326.464844,226.796875 L336.425781,238.222656 C339.029948,241.152344 340.852864,244.082031 341.894531,247.011719 C342.936198,249.941406 343.457031,254.726562 343.457031,261.367188 L343.457031,283.828125 C343.457031,287.083333 342.692058,289.833984 341.162109,292.080078 C339.632161,294.326172 337.109375,295.449219 333.59375,295.449219 C330.14323,295.449219 327.685547,294.326172 326.220703,292.080078 C324.755859,289.833984 324.023438,287.083333 324.023438,283.828125 L324.023438,257.167969 L315.820312,257.167969 L315.820312,282.851562 C315.820312,288.320312 317.252605,292.942708 320.117188,296.71875 C322.98177,300.494792 327.539062,302.382812 333.789062,302.382812 Z M393.457031,301.210938 L393.457031,293.984375 L370.605469,293.984375 L370.605469,231.191406 L391.210938,231.191406 L391.210938,224.257812 L370.605469,224.257812 L370.605469,168.203125 L392.675781,168.203125 L392.675781,161.171875 L362.402344,161.171875 L362.402344,301.210938 L393.457031,301.210938 Z M418.164062,302.382812 C424.479167,302.382812 429.069011,300.494792 431.933594,296.71875 C434.798177,292.942708 436.230469,288.320312 436.230469,282.851562 L436.230469,260.976562 C436.230469,255.247395 435.693359,250.364583 434.619141,246.328125 C433.544922,242.291667 432.405598,239.394531 431.201172,237.636719 C429.996745,235.878906 428.125,233.535156 425.585938,230.605469 L416.210938,219.765625 C413.73698,216.901042 411.979167,213.873698 410.9375,210.683594 C409.895833,207.493489 409.375,202.675781 409.375,196.230469 L409.375,178.457031 C409.375,175.201823 410.058594,172.483723 411.425781,170.302734 C412.792969,168.121745 414.973958,167.03125 417.96875,167.03125 C421.09375,167.03125 423.339844,168.121745 424.707031,170.302734 C426.074219,172.483723 426.757812,175.201823 426.757812,178.457031 L426.757812,203.457031 L434.960938,203.457031 L434.960938,179.238281 C434.960938,173.834636 433.610027,169.277344 430.908203,165.566406 C428.20638,161.855469 423.89323,160 417.96875,160 C412.04427,160 407.763672,161.855469 405.126953,165.566406 C402.490234,169.277344 401.171875,173.834636 401.171875,179.238281 L401.171875,196.816406 C401.171875,204.759114 402.001953,210.846355 403.662109,215.078125 C405.322266,219.309895 407.714844,223.216145 410.839844,226.796875 L420.800781,238.222656 C423.404948,241.152344 425.227864,244.082031 426.269531,247.011719 C427.311198,249.941406 427.832031,254.726562 427.832031,261.367188 L427.832031,283.828125 C427.832031,287.083333 427.067058,289.833984 425.537109,292.080078 C424.007161,294.326172 421.484375,295.449219 417.96875,295.449219 C414.51823,295.449219 412.060547,294.326172 410.595703,292.080078 C409.130859,289.833984 408.398438,287.083333 408.398438,283.828125 L408.398438,257.167969 L400.195312,257.167969 L400.195312,282.851562 C400.195312,288.320312 401.627605,292.942708 404.492188,296.71875 C407.35677,300.494792 411.914062,302.382812 418.164062,302.382812 Z" id="KFORSUNGLASSES" fill="#FFFFFF"></path>
            </g>
        </g>
    </g>
</svg>