<?xml version="1.0" encoding="utf-8"?>
<!-- Generator: Adobe Illustrator 24.1.3, SVG Export Plug-In . SVG Version: 6.00 Build 0)  -->
<svg version="1.1" id="Layer_1" xmlns="http://www.w3.org/2000/svg" xmlns:xlink="http://www.w3.org/1999/xlink" x="0px" y="0px"
	 viewBox="0 0 522 342" style="enable-background:new 0 0 522 342;" xml:space="preserve">
<style type="text/css">
	.st0{enable-background:new    ;}
	.st1{fill:#FFFFFF;}
	.st2{fill:#FBBB21;}
</style>
<desc>Created with Sketch.</desc>
<g id="Page-1">
	<g id="Awards" transform="translate(-56.000000, -474.000000)">
		<g id="Group" transform="translate(20.000000, -210.000000)">
			<g class="st0">
				<path class="st1" d="M80.3,910.6c-8.8-3.8-16.4-8.8-22.7-15.2s-11.4-13.9-15.2-22.7s-5.7-18-5.7-27.6s1.9-18.8,5.7-27.6
					s8.8-16.4,15.2-22.7s13.9-11.4,22.7-15.2s18-5.7,27.6-5.7s18.8,1.9,27.6,5.7s16.4,8.8,22.7,15.2s11.4,13.9,15.2,22.7
					s5.7,18,5.7,27.6s-1.9,18.8-5.7,27.6s-8.8,16.4-15.2,22.7s-13.9,11.4-22.7,15.2s-18,5.7-27.6,5.7S89.1,914.3,80.3,910.6z
					 M133.2,903c7.9-3.3,14.8-7.8,20.5-13.4s10.2-12.3,13.5-20.1s5-15.9,5-24.5c0-11.4-2.8-21.9-8.4-31.5s-13.4-17.3-23.2-22.9
					s-20.7-8.4-32.5-8.4s-22.6,2.8-32.5,8.4s-17.6,13.3-23.2,22.9s-8.4,20.1-8.4,31.5c0,8.5,1.7,16.7,5,24.5s7.8,14.5,13.5,20.1
					s12.5,10.1,20.5,13.4s16.3,5,25.2,5S125.2,906.4,133.2,903z"/>
			</g>
			<g class="st0">
				<path class="st2" d="M38,763.9v-8.2l110.6-21.4H38v-7.2h140v7.6l-111.8,22H178v7.2H38z"/>
				<path class="st2" d="M38,715.4v-30.3h7v22.1H101v-20.6h6.9v20.6h62.8v-22.9h7.2v31.1H38z"/>
			</g>
			<g class="st0">
				<path class="st2" d="M349,776h35.8v7H371v133h-8.2V783H349V776z"/>
				<path class="st2" d="M392.4,776h8.2v62h19.8v-62h8.2v140h-8.2v-71h-19.8v71h-8.2V776z"/>
				<path class="st2" d="M440.5,776h17.9c6.1,0,10.7,1.9,13.7,5.6s4.5,8.4,4.5,14.1v38.2c0,8-3,13.3-9,16c6,3.1,9,8.8,9,17.2v27.2
					c0,8.7,0.7,16,2.1,21.8h-8.2c-1.4-5.1-2.1-12.4-2.1-21.8v-28.4c0-3.3-0.9-6.2-2.6-8.5s-4.5-3.5-8.3-3.5h-8.8V916h-8.2V776z
					 M457.4,846.4c3.8,0,6.5-1.2,8.3-3.5s2.6-5.2,2.6-8.5V795c0-3.3-0.9-6.2-2.6-8.5s-4.5-3.5-8.3-3.5h-8.8v63.4H457.4z"/>
				<path class="st2" d="M487.6,776h30.3v7h-22.1V839h20.6v6.9h-20.6v62.8h22.9v7.2h-31.1V776z"/>
				<path class="st2" d="M526.8,776h30.3v7H535V839h20.6v6.9H535v62.8h22.9v7.2h-31.1V776z"/>
			</g>
			<g class="st0">
				<path class="st2" d="M196,1025v-35.8h7v13.8h133v8.2H203v13.9H196z"/>
				<path class="st2" d="M196,977.4l116.6-8.4L196,958.9v-8.4l115.8-10.2L196,932v-7.2l140,10.8v9.6l-113.6,9.6l113.6,9.9v9.6
					l-140,10.9V977.4z"/>
			</g>
			<g class="st0">
				<path class="st1" d="M238.3,912.1c-8.8-3.8-16.4-8.8-22.7-15.2s-11.4-13.9-15.2-22.7s-5.7-18-5.7-27.6c0-9.6,1.9-18.8,5.7-27.6
					s8.8-16.4,15.2-22.7s13.9-11.4,22.7-15.2s18-5.7,27.6-5.7s18.8,1.9,27.6,5.7s16.4,8.8,22.7,15.2s11.4,13.9,15.2,22.7
					s5.7,18,5.7,27.6c0,9.6-1.9,18.8-5.7,27.6s-8.8,16.4-15.2,22.7s-13.9,11.4-22.7,15.2s-18,5.7-27.6,5.7S247.1,915.8,238.3,912.1z
					 M291.2,904.5c7.9-3.3,14.8-7.8,20.5-13.4s10.2-12.3,13.5-20.1s5-15.9,5-24.5c0-11.4-2.8-21.9-8.4-31.5s-13.4-17.3-23.2-22.9
					s-20.7-8.4-32.5-8.4s-22.6,2.8-32.5,8.4s-17.6,13.3-23.2,22.9s-8.4,20.1-8.4,31.5c0,8.5,1.7,16.7,5,24.5s7.8,14.5,13.5,20.1
					s12.5,10.1,20.5,13.4s16.3,5,25.2,5S283.2,907.9,291.2,904.5z"/>
			</g>
		</g>
	</g>
</g>
</svg>
