<?xml version="1.0" encoding="utf-8"?>
<!-- Generator: Adobe Illustrator 24.1.3, SVG Export Plug-In . SVG Version: 6.00 Build 0)  -->
<svg version="1.1" id="Layer_1" xmlns="http://www.w3.org/2000/svg" xmlns:xlink="http://www.w3.org/1999/xlink" x="0px" y="0px"
	 viewBox="0 0 302 343" style="enable-background:new 0 0 302 343;" xml:space="preserve">
<style type="text/css">
	.st0{enable-background:new    ;}
	.st1{fill:#F07350;}
	.st2{fill:#FFFFFF;}
</style>
<desc>Created with Sketch.</desc>
<g id="Page-1">
	<g id="Sustainability" transform="translate(-56.000000, -455.000000)">
		<g id="Group" transform="translate(20.000000, -187.000000)">
			<g class="st0">
				<path class="st1" d="M80.3,910.6c-8.8-3.8-16.4-8.8-22.7-15.2s-11.4-13.9-15.2-22.7s-5.7-18-5.7-27.6s1.9-18.8,5.7-27.6
					s8.8-16.4,15.2-22.7s13.9-11.4,22.7-15.2s18-5.7,27.6-5.7s18.8,1.9,27.6,5.7s16.4,8.8,22.7,15.2s11.4,13.9,15.2,22.7
					s5.7,18,5.7,27.6s-1.9,18.8-5.7,27.6s-8.8,16.4-15.2,22.7s-13.9,11.4-22.7,15.2s-18,5.7-27.6,5.7S89.1,914.3,80.3,910.6z
					 M133.2,903c7.9-3.3,14.8-7.8,20.5-13.4s10.2-12.3,13.5-20.1s5-15.9,5-24.5c0-11.4-2.8-21.9-8.4-31.5
					c-5.6-9.6-13.4-17.3-23.2-22.9s-20.7-8.4-32.5-8.4s-22.6,2.8-32.5,8.4s-17.6,13.3-23.2,22.9c-5.6,9.6-8.4,20.2-8.4,31.5
					c0,8.5,1.7,16.7,5,24.5s7.8,14.5,13.5,20.1s12.5,10.1,20.5,13.4s16.3,5,25.2,5S125.2,906.4,133.2,903z"/>
			</g>
			<g class="st0">
				<path class="st2" d="M38,763.9v-8.2l110.6-21.4H38v-7.2h140v7.6l-111.8,22H178v7.2H38z"/>
				<path class="st2" d="M38,715.4v-30.3h7v22.1H101v-20.6h6.9v20.6h62.8v-22.9h7.2v31.1H38z"/>
			</g>
			<g class="st0">
				<path class="st2" d="M196,976.4l116.6-8.4L196,958v-8.4l115.8-10.2L196,931v-7.2l140,10.8v9.6l-113.6,9.6l113.6,9.9v9.6
					l-140,10.9V976.4z"/>
			</g>
			<g class="st0">
				<path class="st1" d="M238.3,911.1c-8.8-3.8-16.4-8.8-22.7-15.2s-11.4-13.9-15.2-22.7s-5.7-18-5.7-27.6s1.9-18.8,5.7-27.6
					s8.8-16.4,15.2-22.7s13.9-11.4,22.7-15.2s18-5.7,27.6-5.7s18.8,1.9,27.6,5.7s16.4,8.8,22.7,15.2s11.4,13.9,15.2,22.7
					s5.7,18,5.7,27.6s-1.9,18.8-5.7,27.6s-8.8,16.4-15.2,22.7s-13.9,11.4-22.7,15.2s-18,5.7-27.6,5.7S247.1,914.9,238.3,911.1z
					 M291.2,903.6c7.9-3.3,14.8-7.8,20.5-13.4s10.2-12.3,13.5-20.1s5-15.9,5-24.5c0-11.4-2.8-21.9-8.4-31.5
					c-5.6-9.6-13.4-17.3-23.2-22.9s-20.7-8.4-32.5-8.4s-22.6,2.8-32.5,8.4s-17.6,13.3-23.2,22.9c-5.6,9.6-8.4,20.2-8.4,31.5
					c0,8.5,1.7,16.7,5,24.5s7.8,14.5,13.5,20.1s12.5,10.1,20.5,13.4s16.3,5,25.2,5S283.2,906.9,291.2,903.6z"/>
			</g>
			<g class="st0">
				<path class="st2" d="M196,764.4v-17.9c0-6.1,1.9-10.7,5.6-13.7s8.4-4.5,14.1-4.5h38.2c8,0,13.3,3,16,9c3.1-6,8.8-9,17.2-9h27.2
					c8.7,0,16-0.7,21.8-2.1v8.2c-5.1,1.4-12.4,2.1-21.8,2.1h-28.4c-3.3,0-6.2,0.9-8.5,2.6s-3.5,4.5-3.5,8.3v8.8H336v8.2H196z
					 M266.4,747.4c0-3.8-1.2-6.5-3.5-8.3s-5.2-2.6-8.5-2.6H215c-3.3,0-6.2,0.9-8.5,2.6s-3.5,4.5-3.5,8.3v8.8h63.4V747.4z"/>
				<path class="st2" d="M196,717.3v-8.2h132.8v-22.3h7.2v30.5H196z"/>
				<path class="st2" d="M196,679.3v-17.5c0-6.4,1.9-11.2,5.6-14.4s8.4-4.8,14.1-4.8h100.8c5.7,0,10.4,1.6,14.1,4.7
					s5.5,7.9,5.5,14.5v17.5H196z M328.8,661.4c0-3.7-1.2-6.4-3.5-8.1s-5.2-2.5-8.5-2.5H215.2c-3.3,0-6.2,0.8-8.6,2.5s-3.6,4.4-3.6,8
					v9.7h125.8V661.4z"/>
			</g>
		</g>
	</g>
</g>
</svg>
