<?xml version="1.0" encoding="utf-8"?>
<!-- Generator: Adobe Illustrator 24.1.3, SVG Export Plug-In . SVG Version: 6.00 Build 0)  -->
<svg version="1.1" id="Layer_1" xmlns="http://www.w3.org/2000/svg" xmlns:xlink="http://www.w3.org/1999/xlink" x="0px" y="0px"
	 viewBox="0 0 385 144" style="enable-background:new 0 0 385 144;" xml:space="preserve">
<style type="text/css">
	.st0{enable-background:new    ;}
	.st1{fill:#FFFFFF;}
	.st2{fill:#F07350;}
</style>
<desc>Created with Sketch.</desc>
<g id="Page-1">
	<g id="_x34_04" transform="translate(-60.000000, -673.000000)">
		<g class="st0">
			<path class="st1" d="M66.4,717.3c3.8-8.8,8.8-16.4,15.2-22.7s13.9-11.4,22.7-15.2s18-5.7,27.6-5.7s18.8,1.9,27.6,5.7
				s16.4,8.8,22.7,15.2s11.4,13.9,15.2,22.7s5.7,18,5.7,27.6s-1.9,18.8-5.7,27.6s-8.8,16.4-15.2,22.7s-13.9,11.4-22.7,15.2
				s-18,5.7-27.6,5.7s-18.8-1.9-27.6-5.7s-16.4-8.8-22.7-15.2s-11.4-13.9-15.2-22.7s-5.7-18-5.7-27.6S62.7,726.1,66.4,717.3z
				 M74,770.2c3.3,7.9,7.8,14.8,13.4,20.5s12.3,10.2,20.1,13.5s15.9,5,24.5,5c11.4,0,21.9-2.8,31.5-8.4s17.3-13.4,22.9-23.2
				s8.4-20.7,8.4-32.5s-2.8-22.6-8.4-32.5s-13.3-17.6-22.9-23.2s-20.1-8.4-31.5-8.4c-8.5,0-16.7,1.7-24.5,5s-14.5,7.8-20.1,13.5
				S77.3,711.8,74,719.8s-5,16.3-5,25.2S70.6,762.2,74,770.2z"/>
			<path class="st1" d="M217.8,717.3c3.8-8.8,8.8-16.4,15.2-22.7s13.9-11.4,22.7-15.2s18-5.7,27.6-5.7s18.8,1.9,27.6,5.7
				s16.4,8.8,22.7,15.2s11.4,13.9,15.2,22.7s5.7,18,5.7,27.6s-1.9,18.8-5.7,27.6s-8.8,16.4-15.2,22.7s-13.9,11.4-22.7,15.2
				s-18,5.7-27.6,5.7s-18.8-1.9-27.6-5.7s-16.4-8.8-22.7-15.2s-11.4-13.9-15.2-22.7s-5.7-18-5.7-27.6S214,726.1,217.8,717.3z
				 M225.3,770.2c3.3,7.9,7.8,14.8,13.4,20.5s12.3,10.2,20.1,13.5c7.8,3.3,15.9,5,24.5,5c11.4,0,21.9-2.8,31.5-8.4
				s17.3-13.4,22.9-23.2s8.4-20.7,8.4-32.5s-2.8-22.6-8.4-32.5s-13.3-17.6-22.9-23.2s-20.2-8.4-31.5-8.4c-8.5,0-16.7,1.7-24.5,5
				c-7.8,3.3-14.5,7.8-20.1,13.5s-10.1,12.5-13.4,20.5s-5,16.3-5,25.2S222,762.2,225.3,770.2z"/>
		</g>
		<g class="st0">
			<path class="st2" d="M364.5,675h17.9c6.1,0,10.7,1.9,13.7,5.6s4.5,8.4,4.5,14.1v46c0,5.7-1.5,10.3-4.5,14s-7.6,5.5-13.7,5.5h-9.7
				v55h-8.2V675z M381.8,753.2c3.6,0,6.3-1.2,8-3.5s2.5-5.2,2.5-8.7v-47c0-3.3-0.8-6.2-2.5-8.5s-4.4-3.5-8-3.5h-9.1v71.2H381.8z"/>
			<path class="st2" d="M409.3,771h8.2v26.7c0,3.3,0.7,6,2.2,8.3s3.9,3.4,7.4,3.4c3.5,0,6-1.1,7.6-3.4s2.3-5,2.3-8.3v-22.5
				c0-6.6-0.5-11.4-1.6-14.4s-2.9-5.9-5.5-8.8l-10-11.4c-3.1-3.6-5.5-7.5-7.2-11.7s-2.5-10.3-2.5-18.3V693c0-5.4,1.3-10,4-13.7
				s6.9-5.6,12.8-5.6s10.2,1.9,12.9,5.6s4.1,8.3,4.1,13.7v24.2h-8.2v-25c0-3.3-0.7-6-2.1-8.2s-3.6-3.3-6.7-3.3c-3,0-5.2,1.1-6.5,3.3
				s-2.1,4.9-2.1,8.2V710c0,6.4,0.5,11.3,1.6,14.5s2.8,6.2,5.3,9.1l9.4,10.8c2.5,2.9,4.4,5.3,5.6,7s2.3,4.7,3.4,8.7
				s1.6,8.9,1.6,14.6v21.9c0,5.5-1.4,10.1-4.3,13.9s-7.5,5.7-13.8,5.7c-6.2,0-10.8-1.9-13.7-5.7s-4.3-8.4-4.3-13.9V771z"/>
		</g>
	</g>
</g>
</svg>
