<?xml version="1.0" encoding="utf-8"?>
<!-- Generator: Adobe Illustrator 24.1.3, SVG Export Plug-In . SVG Version: 6.00 Build 0)  -->
<svg version="1.1" id="Layer_1" xmlns="http://www.w3.org/2000/svg" xmlns:xlink="http://www.w3.org/1999/xlink" x="0px" y="0px"
	 viewBox="0 0 301 325" style="enable-background:new 0 0 301 325;" xml:space="preserve">
<style type="text/css">
	.st0{enable-background:new    ;}
	.st1{fill:#FFFFFF;}
	.st2{fill:#A5E0F0;}
</style>
<desc>Created with Sketch.</desc>
<g id="Page-1">
	<g id="Our-Story" transform="translate(-56.000000, -491.000000)">
		<g id="Group" transform="translate(20.000000, -187.000000)">
			<g class="st0">
				<path class="st1" d="M80.3,910.6c-8.8-3.8-16.4-8.8-22.7-15.2s-11.4-13.9-15.2-22.7s-5.7-18-5.7-27.6c0-9.6,1.9-18.8,5.7-27.6
					s8.8-16.4,15.2-22.7s13.9-11.4,22.7-15.2s18-5.7,27.6-5.7s18.8,1.9,27.6,5.7s16.4,8.8,22.7,15.2s11.4,13.9,15.2,22.7
					s5.7,18,5.7,27.6c0,9.6-1.9,18.8-5.7,27.6s-8.8,16.4-15.2,22.7s-13.9,11.4-22.7,15.2s-18,5.7-27.6,5.7S89.1,914.3,80.3,910.6z
					 M133.2,903c7.9-3.3,14.8-7.8,20.5-13.4s10.2-12.3,13.5-20.1s5-15.9,5-24.5c0-11.4-2.8-21.9-8.4-31.5s-13.4-17.3-23.2-22.9
					s-20.7-8.4-32.5-8.4s-22.6,2.8-32.5,8.4s-17.6,13.3-23.2,22.9s-8.4,20.1-8.4,31.5c0,8.5,1.7,16.7,5,24.5s7.8,14.5,13.5,20.1
					s12.5,10.1,20.5,13.4s16.3,5,25.2,5S125.2,906.4,133.2,903z"/>
			</g>
			<g class="st0">
				<path class="st2" d="M38,764.1v-8.2h122.5c3.3,0,6.2-0.8,8.5-2.5s3.5-4.2,3.5-7.8s-1.2-6.1-3.5-7.6s-5.2-2.3-8.5-2.3H38v-8
					h121.2c5.9,0,10.7,1.5,14.5,4.4s5.6,7.5,5.6,13.7c0,6.1-1.9,10.7-5.6,13.7s-8.5,4.5-14.4,4.5H38z"/>
				<path class="st2" d="M38,716.1v-17.9c0-6.1,1.9-10.7,5.6-13.7s8.4-4.5,14.1-4.5h38.2c8,0,13.3,3,16,9c3.1-6,8.8-9,17.2-9h27.2
					c8.7,0,16-0.7,21.8-2.1v8.2c-5.1,1.4-12.4,2.1-21.8,2.1h-28.4c-3.3,0-6.2,0.9-8.5,2.6s-3.5,4.5-3.5,8.3v8.8H178v8.2H38z
					 M108.4,699.1c0-3.8-1.2-6.5-3.5-8.3s-5.2-2.6-8.5-2.6H57c-3.3,0-6.2,0.9-8.5,2.6s-3.5,4.5-3.5,8.3v8.8h63.4V699.1z"/>
			</g>
			<g class="st0">
				<path class="st2" d="M291.7,1002v-8.2h26.7c3.3,0,6-0.7,8.3-2.2s3.4-3.9,3.4-7.4c0-3.5-1.1-6-3.4-7.6s-5-2.3-8.3-2.3h-22.5
					c-6.6,0-11.4,0.5-14.4,1.6s-5.9,2.9-8.8,5.5l-11.4,10c-3.6,3.1-7.5,5.5-11.7,7.2c-4.2,1.7-10.3,2.5-18.3,2.5h-17.6
					c-5.4,0-10-1.3-13.7-4s-5.6-6.9-5.6-12.8s1.9-10.2,5.6-12.9s8.3-4.1,13.7-4.1H238v8.2h-25c-3.3,0-6,0.7-8.2,2.1
					c-2.2,1.4-3.3,3.6-3.3,6.7c0,3,1.1,5.2,3.3,6.5c2.2,1.4,4.9,2.1,8.2,2.1h17.8c6.4,0,11.3-0.5,14.5-1.6c3.2-1,6.2-2.8,9.1-5.3
					l10.8-9.4c2.9-2.5,5.3-4.4,7-5.6s4.7-2.3,8.7-3.4c4-1.1,8.9-1.6,14.6-1.6h21.9c5.5,0,10.1,1.4,13.9,4.3
					c3.8,2.9,5.7,7.5,5.7,13.8c0,6.2-1.9,10.8-5.7,13.7c-3.8,2.9-8.4,4.3-13.9,4.3H291.7z"/>
				<path class="st2" d="M195.7,959.2v-35.8h7v13.8h133v8.2h-133v13.9H195.7z"/>
			</g>
			<g class="st0">
				<path class="st1" d="M238.1,911.1c-8.8-3.8-16.4-8.8-22.7-15.2S204,882,200.2,873.2c-3.8-8.8-5.7-18-5.7-27.6
					c0-9.6,1.9-18.8,5.7-27.6c3.8-8.8,8.8-16.4,15.2-22.7s13.9-11.4,22.7-15.2s18-5.7,27.6-5.7c9.6,0,18.8,1.9,27.6,5.7
					s16.4,8.8,22.7,15.2s11.4,13.9,15.2,22.7c3.8,8.8,5.7,18,5.7,27.6c0,9.6-1.9,18.8-5.7,27.6c-3.8,8.8-8.8,16.4-15.2,22.7
					s-13.9,11.4-22.7,15.2s-18,5.7-27.6,5.7C256.1,916.8,246.9,914.9,238.1,911.1z M290.9,903.6c7.9-3.3,14.8-7.8,20.5-13.4
					c5.7-5.6,10.2-12.3,13.5-20.1s5-15.9,5-24.5c0-11.4-2.8-21.9-8.4-31.5c-5.6-9.6-13.4-17.3-23.2-22.9s-20.7-8.4-32.5-8.4
					c-11.8,0-22.6,2.8-32.5,8.4S215.7,804.4,210,814c-5.6,9.6-8.4,20.1-8.4,31.5c0,8.5,1.7,16.7,5,24.5s7.8,14.5,13.5,20.1
					c5.7,5.6,12.5,10.1,20.5,13.4c7.9,3.3,16.3,5,25.2,5C274.6,908.6,283,906.9,290.9,903.6z"/>
			</g>
			<g class="st0">
				<path class="st2" d="M195.7,764.4v-17.9c0-6.1,1.9-10.7,5.6-13.7s8.4-4.5,14.1-4.5h38.2c8,0,13.3,3,16,9c3.1-6,8.8-9,17.2-9H314
					c8.7,0,16-0.7,21.8-2.1v8.2c-5.1,1.4-12.4,2.1-21.8,2.1h-28.4c-3.3,0-6.2,0.9-8.5,2.6s-3.5,4.5-3.5,8.3v8.8h62.2v8.2H195.7z
					 M266.1,747.4c0-3.8-1.2-6.5-3.5-8.3c-2.3-1.7-5.2-2.6-8.5-2.6h-39.4c-3.3,0-6.2,0.9-8.5,2.6s-3.5,4.5-3.5,8.3v8.8h63.4V747.4z"
					/>
				<path class="st2" d="M195.7,713.6l70.4-11.8l-70.4-12v-7.6l85.6,15.4h54.4v8.4H282l-86.2,15.4V713.6z"/>
			</g>
		</g>
	</g>
</g>
</svg>
