<?xml version="1.0" encoding="utf-8"?>
<!-- Generator: Adobe Illustrator 24.1.3, SVG Export Plug-In . SVG Version: 6.00 Build 0)  -->
<svg version="1.1" id="Layer_1" xmlns="http://www.w3.org/2000/svg" xmlns:xlink="http://www.w3.org/1999/xlink" x="0px" y="0px"
	 viewBox="0 0 496 452" style="enable-background:new 0 0 496 452;" xml:space="preserve">
<style type="text/css">
	.st0{enable-background:new    ;}
	.st1{fill:#FFFFFF;}
	.st2{fill:#F07350;}
</style>
<desc>Created with Sketch.</desc>
<g id="Page-1">
	<g id="Lens-Quality" transform="translate(-59.000000, -364.000000)">
		<g id="Group" transform="translate(23.000000, 140.000000)">
			<g class="st0">
				<path class="st1" d="M199.4,315.3c3.8-8.8,8.8-16.4,15.2-22.7s13.9-11.4,22.7-15.2s18-5.7,27.6-5.7s18.8,1.9,27.6,5.7
					s16.4,8.8,22.7,15.2s11.4,13.9,15.2,22.7s5.7,18,5.7,27.6s-1.9,18.8-5.7,27.6s-8.8,16.4-15.2,22.7s-13.9,11.4-22.7,15.2
					s-18,5.7-27.6,5.7s-18.8-1.9-27.6-5.7s-16.4-8.8-22.7-15.2s-11.4-13.9-15.2-22.7s-5.7-18-5.7-27.6S195.7,324.1,199.4,315.3z
					 M207,368.2c3.3,7.9,7.8,14.8,13.4,20.5s12.3,10.2,20.1,13.5s15.9,5,24.5,5c11.4,0,21.9-2.8,31.5-8.4s17.3-13.4,22.9-23.2
					s8.4-20.7,8.4-32.5s-2.8-22.6-8.4-32.5s-13.3-17.6-22.9-23.2s-20.1-8.4-31.5-8.4c-8.5,0-16.7,1.7-24.5,5s-14.5,7.8-20.1,13.5
					s-10.1,12.5-13.4,20.5s-5,16.3-5,25.2S203.6,360.2,207,368.2z"/>
			</g>
			<g class="st0">
				<path class="st2" d="M346.1,273H364c6.1,0,10.7,1.9,13.7,5.6s4.5,8.4,4.5,14.1v46c0,5.7-1.5,10.3-4.5,14s-7.6,5.5-13.7,5.5h-9.7
					v55h-8.2V273z M363.4,351.2c3.6,0,6.3-1.2,8-3.5s2.5-5.2,2.5-8.7v-47c0-3.3-0.8-6.2-2.5-8.5s-4.4-3.5-8-3.5h-9.1v71.2H363.4z"/>
				<path class="st2" d="M388.5,273h35.8v7h-13.8v133h-8.2V280h-13.9V273z"/>
				<path class="st2" d="M432,273h8.2v140H432V273z"/>
				<path class="st2" d="M451.4,291.2c0-5.7,1.5-10.3,4.4-14s7.4-5.5,13.4-5.5c6.2,0,10.7,1.8,13.5,5.4s4.2,8.3,4.2,14v24h-8v-24.8
					c0-3.3-0.7-6.1-2.2-8.3s-4-3.3-7.5-3.3c-3.3,0-5.8,1.1-7.3,3.4s-2.3,5-2.3,8.3v105.2c0,3.3,0.8,6,2.3,8.3s4,3.4,7.3,3.4
					c6.5,0,9.8-3.9,9.8-11.6V369h8v25.7c0,5.9-1.4,10.6-4.2,14.2s-7.3,5.4-13.6,5.4c-6,0-10.5-1.8-13.4-5.5s-4.4-8.3-4.4-14.1V291.2
					z"/>
				<path class="st2" d="M495.4,369h8.2v26.7c0,3.3,0.7,6,2.2,8.3s3.9,3.4,7.4,3.4c3.5,0,6-1.1,7.6-3.4s2.3-5,2.3-8.3v-22.5
					c0-6.6-0.5-11.4-1.6-14.4s-2.9-5.9-5.5-8.8l-10-11.4c-3.1-3.6-5.5-7.5-7.2-11.7s-2.5-10.3-2.5-18.3V291c0-5.4,1.3-10,4-13.7
					s6.9-5.6,12.8-5.6s10.2,1.9,12.9,5.6s4.1,8.3,4.1,13.7v24.2H522v-25c0-3.3-0.7-6-2.1-8.2s-3.6-3.3-6.7-3.3c-3,0-5.2,1.1-6.5,3.3
					s-2.1,4.9-2.1,8.2V308c0,6.4,0.5,11.3,1.6,14.5s2.8,6.2,5.3,9.1l9.4,10.8c2.5,2.9,4.4,5.3,5.6,7s2.3,4.7,3.4,8.7
					s1.6,8.9,1.6,14.6v21.9c0,5.5-1.4,10.1-4.3,13.9s-7.5,5.7-13.8,5.7c-6.2,0-10.8-1.9-13.7-5.7s-4.3-8.4-4.3-13.9V369z"/>
			</g>
			<g class="st0">
				<path class="st2" d="M38,675.2v-17.9c0-6.1,1.9-10.7,5.6-13.7s8.4-4.5,14.1-4.5h46c5.7,0,10.3,1.5,14,4.5s5.5,7.6,5.5,13.7v9.7
					h55v8.2H38z M116.2,658c0-3.6-1.2-6.3-3.5-8s-5.2-2.5-8.7-2.5H57c-3.3,0-6.2,0.8-8.5,2.5s-3.5,4.4-3.5,8v9.1h71.2V658z"/>
				<path class="st2" d="M38,629v-17.9c0-6.1,1.9-10.7,5.6-13.7s8.4-4.5,14.1-4.5h38.2c8,0,13.3,3,16,9c3.1-6,8.8-9,17.2-9h27.2
					c8.7,0,16-0.7,21.8-2.1v8.2c-5.1,1.4-12.4,2.1-21.8,2.1h-28.4c-3.3,0-6.2,0.9-8.5,2.6s-3.5,4.5-3.5,8.3v8.8H178v8.2H38z
					 M108.4,612.1c0-3.8-1.2-6.5-3.5-8.3s-5.2-2.6-8.5-2.6H57c-3.3,0-6.2,0.9-8.5,2.6s-3.5,4.5-3.5,8.3v8.8h63.4V612.1z"/>
				<path class="st2" d="M38,581.9v-30.3h7v22.1H101v-20.6h6.9v20.6h62.8v-22.9h7.2v31.1H38z"/>
				<path class="st2" d="M56.2,543.3c-5.7,0-10.3-1.5-14-4.4s-5.5-7.4-5.5-13.4c0-6.2,1.8-10.7,5.4-13.5s8.3-4.2,14-4.2h24v8H55.4
					c-3.3,0-6.1,0.7-8.3,2.2s-3.3,4-3.3,7.5c0,3.3,1.1,5.8,3.4,7.3s5,2.3,8.3,2.3h105.2c3.3,0,6-0.8,8.3-2.3s3.4-4,3.4-7.3
					c0-6.5-3.9-9.8-11.6-9.8H134v-8h25.7c5.9,0,10.6,1.4,14.2,4.2s5.4,7.3,5.4,13.6c0,6-1.8,10.5-5.5,13.4s-8.3,4.4-14.1,4.4H56.2z"
					/>
				<path class="st2" d="M38,497.9v-8.2h140v8.2H38z"/>
				<path class="st2" d="M134,479.2V471h26.7c3.3,0,6-0.7,8.3-2.2s3.4-3.9,3.4-7.4c0-3.5-1.1-6-3.4-7.6s-5-2.3-8.3-2.3h-22.5
					c-6.6,0-11.4,0.5-14.4,1.6s-5.9,2.9-8.8,5.5l-11.4,10c-3.6,3.1-7.5,5.5-11.7,7.2s-10.3,2.5-18.3,2.5H56c-5.4,0-10-1.3-13.7-4
					s-5.6-6.9-5.6-12.8s1.9-10.2,5.6-12.9c3.7-2.7,8.3-4.1,13.7-4.1h24.2v8.2h-25c-3.3,0-6,0.7-8.2,2.1s-3.3,3.6-3.3,6.7
					c0,3,1.1,5.2,3.3,6.5s4.9,2.1,8.2,2.1H73c6.4,0,11.3-0.5,14.5-1.6s6.2-2.8,9.1-5.3l10.8-9.4c2.9-2.5,5.3-4.4,7-5.6
					s4.7-2.3,8.7-3.4s8.9-1.6,14.6-1.6h21.9c5.5,0,10.1,1.4,13.9,4.3s5.7,7.5,5.7,13.8c0,6.2-1.9,10.8-5.7,13.7s-8.4,4.3-13.9,4.3
					H134z"/>
				<path class="st2" d="M38,432.7v-8.2h140v8.2H38z"/>
			</g>
			<g class="st0">
				<path class="st1" d="M80.3,408c-8.8-3.8-16.4-8.8-22.7-15.2s-11.4-13.9-15.2-22.7s-5.7-18-5.7-27.6s1.9-18.8,5.7-27.6
					s8.8-16.4,15.2-22.7s13.9-11.4,22.7-15.2s18-5.7,27.6-5.7s18.8,1.9,27.6,5.7s16.4,8.8,22.7,15.2s11.4,13.9,15.2,22.7
					s5.7,18,5.7,27.6s-1.9,18.8-5.7,27.6s-8.8,16.4-15.2,22.7s-13.9,11.4-22.7,15.2s-18,5.7-27.6,5.7S89.1,411.7,80.3,408z
					 M133.2,400.4c7.9-3.3,14.8-7.8,20.5-13.4s10.2-12.3,13.5-20.1s5-15.9,5-24.5c0-11.4-2.8-21.9-8.4-31.5s-13.4-17.3-23.2-22.9
					s-20.7-8.4-32.5-8.4s-22.6,2.8-32.5,8.4s-17.6,13.3-23.2,22.9s-8.4,20.1-8.4,31.5c0,8.5,1.7,16.7,5,24.5s7.8,14.5,13.5,20.1
					s12.5,10.1,20.5,13.4s16.3,5,25.2,5S125.2,403.8,133.2,400.4z"/>
			</g>
			<g class="st0">
				<path class="st2" d="M38,261.3v-8.2l110.6-21.4H38v-7.2h140v7.6L66.2,254H178v7.2H38z"/>
			</g>
		</g>
	</g>
</g>
</svg>
